<?xml version="1.0" encoding="UTF-8" standalone="no"?><!-- Generator: Gravit.io --><svg xmlns="http://www.w3.org/2000/svg" xmlns:xlink="http://www.w3.org/1999/xlink" style="isolation:isolate" viewBox="632.3 752 15.4 23.339" width="15.4pt" height="23.339pt"><path d=" M 638.525 770.699 L 638.525 753.373 C 638.525 752.615 639.141 752 639.898 752 L 639.898 752 C 640.656 752 641.271 752.615 641.271 753.373 L 641.271 770.892 L 645.357 767.016 C 645.892 766.508 646.762 766.508 647.298 767.016 L 647.298 767.016 C 647.834 767.524 647.834 768.35 647.298 768.858 L 641.072 774.765 C 641.016 774.819 640.955 774.867 640.892 774.909 C 640.644 775.175 640.29 775.339 639.898 775.339 L 639.898 775.339 C 639.321 775.339 638.826 774.982 638.623 774.477 L 632.702 768.858 C 632.166 768.35 632.166 767.524 632.702 767.016 L 632.702 767.016 C 633.238 766.508 634.108 766.508 634.643 767.016 L 638.525 770.699 Z " fill-rule="evenodd" fill="rgb(255,255,255)"/></svg>